<?xml version="1.0" standalone="no"?>
<!DOCTYPE svg PUBLIC "-//W3C//DTD SVG 20010904//EN"
 "http://www.w3.org/TR/2001/REC-SVG-20010904/DTD/svg10.dtd">
<svg version="1.0" xmlns="http://www.w3.org/2000/svg"
 width="1024.000000pt" height="1024.000000pt" viewBox="0 0 1024.000000 1024.000000"
 preserveAspectRatio="xMidYMid meet">
<metadata>
Created by potrace 1.11, written by Peter Selinger 2001-2013
</metadata>
<g transform="translate(0.000000,1024.000000) scale(0.100000,-0.100000)"
fill="#000000" stroke="none">
<path d="M1435 8915 c-318 -58 -575 -305 -645 -620 -19 -89 -19 -134 -19
-3180 l0 -3090 23 -90 c86 -330 347 -565 678 -611 29 -4 1682 -7 3673 -7
l3620 1 96 25 c158 41 275 112 388 233 99 105 152 197 194 339 l22 70 2 3105
c3 2996 2 3108 -16 3195 -64 311 -312 560 -624 625 -90 19 -173 20 -3707 19
-2889 -1 -3629 -3 -3685 -14z m7158 -814 c12 -7 31 -24 42 -39 20 -27 20 -49
20 -2931 0 -2227 -3 -2910 -12 -2932 -6 -16 -27 -38 -45 -49 -32 -19 -54 -19
-3478 -19 -3424 0 -3446 0 -3478 19 -18 11 -39 33 -45 49 -9 22 -12 705 -12
2934 l0 2906 30 32 c17 17 38 34 47 38 9 3 1567 6 3463 5 2688 -1 3450 -4
3468 -13z"/>
<path d="M2875 7362 c-139 -12 -288 -91 -389 -204 -216 -243 -199 -624 39
-846 130 -122 243 -166 425 -165 185 1 298 49 430 182 117 118 172 248 173
410 2 155 -22 238 -104 361 -121 183 -343 284 -574 262z"/>
<path d="M4234 7159 c-95 -7 -144 -40 -183 -122 -17 -35 -19 -67 -18 -285 0
-238 1 -249 23 -294 27 -53 67 -85 127 -102 32 -9 468 -12 1772 -11 l1730 1
42 22 c42 22 80 64 100 113 8 18 11 114 10 287 l-2 259 -26 37 c-34 47 -84 84
-125 92 -40 7 -3354 11 -3450 3z"/>
<path d="M2890 5732 c-51 -4 -169 -33 -176 -43 -3 -5 -12 -9 -21 -9 -8 0 -46
-20 -83 -45 -209 -139 -311 -383 -264 -635 39 -210 206 -396 414 -461 73 -23
220 -33 290 -19 25 5 56 12 70 14 46 10 164 74 216 118 56 48 131 141 162 204
69 136 75 342 16 492 -53 133 -176 267 -298 325 -94 44 -220 67 -326 59z"/>
<path d="M4158 5516 c-36 -15 -85 -63 -106 -101 -14 -25 -17 -70 -19 -270 -1
-141 2 -257 8 -280 15 -54 52 -101 102 -127 l42 -22 1750 -1 1750 0 45 25 c24
14 58 45 75 68 l30 44 2 247 c1 140 -3 264 -8 287 -13 50 -52 95 -106 123
l-42 21 -1748 -1 c-1339 -1 -1754 -4 -1775 -13z"/>
<path d="M2884 4098 c-154 -17 -265 -70 -372 -178 -119 -119 -172 -245 -176
-420 -8 -284 190 -540 466 -603 284 -64 563 68 696 329 52 102 70 270 45 399
-43 211 -241 415 -448 461 -55 13 -157 19 -211 12z"/>
<path d="M4155 3881 c-49 -22 -101 -79 -113 -123 -13 -48 -14 -475 -1 -524 14
-53 57 -106 106 -130 37 -18 103 -19 1778 -20 1469 0 1747 2 1782 14 51 17
108 77 122 129 5 21 10 144 9 274 0 202 -3 242 -17 275 -22 49 -79 100 -128
113 -26 8 -588 11 -1768 11 -1650 -1 -1732 -1 -1770 -19z"/>
</g>
</svg>
